<svg width="196" height="49" viewBox="0 0 196 49" fill="none" xmlns="http://www.w3.org/2000/svg">
<g filter="url(#filter0_d_2012_10)">
<path d="M0 4.24H6.192L14.304 18.592L22.08 4.24H28.176L16.896 22.912V35.92H11.376V23.104L0 4.24Z" fill="#FFFEFE"/>
<path d="M40.4378 23.632C40.4378 26.544 41.1098 28.64 42.4538 29.92C43.7978 31.168 45.6698 31.792 48.0698 31.792C50.4698 31.792 52.3418 31.168 53.6858 29.92C55.0618 28.64 55.7498 26.544 55.7498 23.632V4.24H61.0298V24.784C61.0298 26.352 60.7738 27.84 60.2618 29.248C59.7498 30.656 58.9498 31.904 57.8618 32.992C56.8058 34.048 55.4298 34.896 53.7338 35.536C52.0698 36.144 50.0858 36.448 47.7817 36.448C45.4777 36.448 43.5098 36.144 41.8778 35.536C40.2458 34.896 38.9018 34.048 37.8458 32.992C36.8218 31.904 36.0698 30.656 35.5898 29.248C35.1418 27.84 34.9178 26.352 34.9178 24.784V4.24H40.4378V23.632Z" fill="#FFFEFE"/>
<path d="M86.1375 4C88.6335 4 90.8415 4.432 92.7615 5.296C94.6815 6.16 96.2975 7.344 97.6095 8.848C98.9215 10.32 99.9135 12.032 100.586 13.984C101.258 15.936 101.594 17.984 101.594 20.128C101.594 22.176 101.274 24.16 100.633 26.08C100.025 28 99.0975 29.712 97.8495 31.216C96.6015 32.72 95.0495 33.952 93.1935 34.912C91.3375 35.84 89.1775 36.352 86.7135 36.448C87.8655 36.576 88.9695 36.832 90.0255 37.216C91.0815 37.6 92.1215 37.984 93.1455 38.368C94.2015 38.784 95.2575 39.152 96.3135 39.472C97.4015 39.792 98.5535 39.952 99.7695 39.952C100.474 39.952 101.21 39.872 101.978 39.712C102.746 39.584 103.562 39.344 104.425 38.992L103.178 43.696C102.602 43.92 102.026 44.064 101.45 44.128C100.906 44.224 100.362 44.272 99.8175 44.272C98.4735 44.272 97.1775 44.048 95.9295 43.6C94.7135 43.184 93.4975 42.72 92.2815 42.208C91.0975 41.728 89.9135 41.264 88.7295 40.816C87.5775 40.4 86.4095 40.192 85.2255 40.192C84.5215 40.192 83.6415 40.32 82.5855 40.576C81.5295 40.832 80.5055 41.328 79.5135 42.064L78.5535 38.608C79.4175 37.936 80.3455 37.424 81.3375 37.072C82.3615 36.72 83.3375 36.512 84.2655 36.448C81.9935 36.288 79.9935 35.744 78.2655 34.816C76.5695 33.888 75.1615 32.704 74.0415 31.264C72.9215 29.824 72.0735 28.176 71.4975 26.32C70.9535 24.464 70.6815 22.512 70.6815 20.464C70.6815 18.192 71.0175 16.064 71.6895 14.08C72.3935 12.064 73.4015 10.32 74.7135 8.848C76.0255 7.344 77.6415 6.16 79.5615 5.296C81.4815 4.432 83.6735 4 86.1375 4ZM85.9935 31.792C87.7215 31.792 89.1935 31.488 90.4095 30.88C91.6575 30.272 92.6655 29.456 93.4335 28.432C94.2335 27.376 94.8095 26.144 95.1615 24.736C95.5455 23.296 95.7375 21.76 95.7375 20.128C95.7375 18.464 95.5455 16.928 95.1615 15.52C94.7775 14.112 94.1855 12.912 93.3855 11.92C92.5855 10.896 91.5615 10.112 90.3135 9.568C89.0975 8.992 87.6415 8.704 85.9455 8.704C84.2495 8.704 82.8095 8.992 81.6255 9.568C80.4415 10.112 79.4655 10.896 78.6975 11.92C77.9615 12.912 77.4175 14.112 77.0655 15.52C76.7455 16.896 76.5855 18.432 76.5855 20.128C76.5855 23.968 77.3855 26.88 78.9855 28.864C80.5855 30.816 82.9215 31.792 85.9935 31.792Z" fill="#FFFEFE"/>
<path d="M117.103 35.92H111.583V4.24H117.103V35.92Z" fill="#FFFEFE"/>
<path d="M136.688 22.384C136.336 22.384 135.968 22.384 135.584 22.384C135.232 22.384 134.848 22.368 134.432 22.336V35.92H128.912V4.24C129.424 4.208 130 4.176 130.64 4.144C131.312 4.112 131.984 4.096 132.656 4.096C133.328 4.064 133.952 4.048 134.528 4.048C135.136 4.016 135.616 4 135.968 4C140.064 4 143.184 4.784 145.328 6.352C147.472 7.888 148.544 10.144 148.544 13.12C148.544 15.008 148.08 16.704 147.152 18.208C146.224 19.712 144.672 20.832 142.496 21.568L154.112 35.92H147.728L136.688 22.384ZM136.448 8.608C136.192 8.608 135.888 8.608 135.536 8.608C135.184 8.608 134.816 8.624 134.432 8.656V17.776H137.408C139.136 17.776 140.448 17.344 141.344 16.48C142.24 15.616 142.688 14.384 142.688 12.784C142.688 11.344 142.24 10.288 141.344 9.616C140.48 8.944 138.848 8.608 136.448 8.608Z" fill="#FFFEFE"/>
<path d="M187.829 35.92H181.829L178.229 26.704H166.277L163.013 35.92H157.253L169.541 4.24H174.293L187.829 35.92ZM167.813 22.384H176.501L171.941 10.72L167.813 22.384Z" fill="#FFFEFE"/>
</g>
<defs>
<filter id="filter0_d_2012_10" x="0" y="0" width="195.829" height="48.272" filterUnits="userSpaceOnUse" color-interpolation-filters="sRGB">
<feFlood flood-opacity="0" result="BackgroundImageFix"/>
<feColorMatrix in="SourceAlpha" type="matrix" values="0 0 0 0 0 0 0 0 0 0 0 0 0 0 0 0 0 0 127 0" result="hardAlpha"/>
<feOffset dx="4"/>
<feGaussianBlur stdDeviation="2"/>
<feComposite in2="hardAlpha" operator="out"/>
<feColorMatrix type="matrix" values="0 0 0 0 0 0 0 0 0 0 0 0 0 0 0 0 0 0 0.25 0"/>
<feBlend mode="normal" in2="BackgroundImageFix" result="effect1_dropShadow_2012_10"/>
<feBlend mode="normal" in="SourceGraphic" in2="effect1_dropShadow_2012_10" result="shape"/>
</filter>
</defs>
</svg>
