<svg width="220" height="220" viewBox="0 0 220 220" fill="none" xmlns="http://www.w3.org/2000/svg">
<defs>
  <radialGradient id="halo" cx="0" cy="0" r="1" gradientUnits="userSpaceOnUse" gradientTransform="translate(110 110) rotate(90) scale(104)">
    <stop stop-color="#BFA0FF" stop-opacity="0.38"/><stop offset="0.55" stop-color="#8D65FF" stop-opacity="0.16"/><stop offset="1" stop-color="#1A1238" stop-opacity="0"/>
  </radialGradient>
  <linearGradient id="moon" x1="68" y1="54" x2="144" y2="154" gradientUnits="userSpaceOnUse"><stop stop-color="#FFF0FF"/><stop offset="0.48" stop-color="#D8C2FF"/><stop offset="1" stop-color="#8B67D8"/></linearGradient>
  <filter id="glow" x="0" y="0" width="220" height="220" filterUnits="userSpaceOnUse" color-interpolation-filters="sRGB"><feGaussianBlur stdDeviation="8" result="b"/><feMerge><feMergeNode in="b"/><feMergeNode in="SourceGraphic"/></feMerge></filter>
</defs>
<circle cx="110" cy="110" r="108" fill="url(#halo)"/>
<circle cx="110" cy="110" r="60" fill="#251545" fill-opacity="0.78" stroke="#A676FF" stroke-opacity="0.38"/>
<g filter="url(#glow)">
  <path d="M132 54C100 60 76 88 76 121c0 25 14 47 35 58-39-2-70-34-70-73 0-40 33-73 73-73 6 0 12 1 18 3z" fill="url(#moon)"/>
  <path d="M147 74l4 11 11 4-11 4-4 11-4-11-11-4 11-4 4-11zM70 49l2.8 7 7.2 2.7-7.2 2.7-2.8 7-2.8-7-7.2-2.7 7.2-2.7 2.8-7zM159 137l2.2 5.7 5.8 2.3-5.8 2.3-2.2 5.7-2.2-5.7-5.8-2.3 5.8-2.3 2.2-5.7z" fill="#F9E8FF"/>
</g>
</svg>