<svg width="220" height="270" viewBox="0 0 220 270" fill="none" xmlns="http://www.w3.org/2000/svg">
<defs><linearGradient id="m" x1="63" y1="40" x2="150" y2="158" gradientUnits="userSpaceOnUse"><stop stop-color="#FFF0FA"/><stop offset="0.45" stop-color="#C6A8FF"/><stop offset="1" stop-color="#5F4A9A"/></linearGradient><linearGradient id="flower" x1="10" y1="168" x2="72" y2="245" gradientUnits="userSpaceOnUse"><stop stop-color="#BCA1FF"/><stop offset="1" stop-color="#6B5AA0"/></linearGradient><filter id="soft" x="-20" y="-20" width="260" height="310" filterUnits="userSpaceOnUse"><feGaussianBlur stdDeviation="3"/></filter></defs>
<ellipse cx="108" cy="238" rx="88" ry="19" fill="#0A0820" fill-opacity="0.42" filter="url(#soft)"/>
<path d="M128 38C92 44 65 75 65 113c0 32 20 60 48 72-46-4-82-42-82-89 0-49 40-89 89-89 10 0 20 2 29 5-7 10-14 18-21 26z" fill="url(#m)" fill-opacity="0.92"/>
<path d="M108 115l4.6 12 12.4 4.2-12.4 4.4-4.6 11.9-4.6-11.9-12.4-4.4 12.4-4.2 4.6-12z" fill="#FFE2FA"/>
<g stroke="url(#flower)" stroke-width="4" stroke-linecap="round"><path d="M32 246c4-34 7-62 1-87"/><path d="M52 246c-3-31 3-57 22-78"/><path d="M174 246c-7-28-5-55 9-81"/><path d="M150 248c4-36-6-66-22-90"/></g>
<g fill="#9B7CEB"><ellipse cx="25" cy="176" rx="8" ry="4" transform="rotate(-38 25 176)"/><ellipse cx="42" cy="191" rx="8" ry="4" transform="rotate(34 42 191)"/><ellipse cx="67" cy="178" rx="9" ry="4" transform="rotate(-28 67 178)"/><ellipse cx="184" cy="177" rx="8" ry="4" transform="rotate(35 184 177)"/><ellipse cx="162" cy="204" rx="8" ry="4" transform="rotate(-33 162 204)"/></g>
<path d="M60 154l2.4 6.3 6.6 2.2-6.6 2.4-2.4 6.1-2.4-6.1-6.6-2.4 6.6-2.2 2.4-6.3zM178 78l2.4 6.3 6.6 2.2-6.6 2.4-2.4 6.1-2.4-6.1-6.6-2.4 6.6-2.2 2.4-6.3z" fill="#FFE8FF"/>
</svg>