<svg width="1400" height="900" viewBox="0 0 1400 900" fill="none" xmlns="http://www.w3.org/2000/svg">
<g fill="#F8E9FF" opacity="0.82">
<circle cx="86" cy="178" r="1.3"/><circle cx="204" cy="728" r="1.1"/><circle cx="338" cy="82" r="1.6"/><circle cx="526" cy="202" r="1.1"/><circle cx="728" cy="104" r="1.5"/><circle cx="904" cy="240" r="1.1"/><circle cx="1058" cy="90" r="1.7"/><circle cx="1242" cy="178" r="1.2"/><circle cx="1320" cy="594" r="1.4"/><circle cx="1106" cy="724" r="1.1"/><circle cx="716" cy="788" r="1.2"/><circle cx="486" cy="664" r="1.0"/><circle cx="196" cy="404" r="1.5"/>
</g>
<g fill="#D9C1FF" opacity="0.58">
<path d="M1138 76l2.4 6.2 6.6 2.3-6.6 2.3-2.4 6.2-2.4-6.2-6.6-2.3 6.6-2.3 2.4-6.2z"/><path d="M240 132l2 5 5 2-5 2-2 5-2-5-5-2 5-2 2-5z"/><path d="M1186 608l2 5 5 2-5 2-2 5-2-5-5-2 5-2 2-5z"/><path d="M662 520l1.8 4.5 4.7 1.7-4.7 1.8-1.8 4.5-1.8-4.5-4.7-1.8 4.7-1.7 1.8-4.5z"/>
</g>
</svg>